<svg width="329" height="175" viewBox="0 0 329 175" fill="none" xmlns="http://www.w3.org/2000/svg">
<g clip-path="url(#clip0_301_1187)">
<rect x="72" y="2.09113" width="170" height="170" stroke="white" stroke-width="4"/>
<path d="M157.227 55.261V51.0632H145.896V55.261H157.227Z" fill="white"/>
<path d="M168.536 51.0632V46.8825H157.227V51.0632H168.536Z" fill="white"/>
<path d="M179.867 46.8825V42.6846H168.536V46.8825H179.867Z" fill="white"/>
<path d="M191.199 42.6846V38.4868H179.868V42.6846H191.199Z" fill="white"/>
<path d="M202.531 38.4868V34.289H191.2V38.4868H202.531Z" fill="white"/>
<path d="M213.84 34.289H219.506V30.0911H202.531V34.289H213.84Z" fill="white"/>
<path d="M225.172 38.4868H230.838V34.289H219.506V38.4868H225.172Z" fill="white"/>
<path d="M236.503 42.6846H242.169V38.4868H230.837V42.6846H236.503Z" fill="white"/>
<path d="M247.835 46.8825H253.501V42.6846H242.169V46.8825H247.835Z" fill="white"/>
<path d="M259.144 51.0632H264.81V46.8825H253.501V51.0632H259.144Z" fill="white"/>
<path d="M270.475 55.261H276.141V51.0632H264.81V55.261H270.475Z" fill="white"/>
<path d="M191.2 134.986H185.534V139.184H196.865V134.986H191.2Z" fill="white"/>
<path d="M179.868 130.788H174.202V134.986H185.533V130.788H179.868Z" fill="white"/>
<path d="M168.536 126.59H162.87V130.788H174.202V126.59H168.536Z" fill="white"/>
<path d="M157.227 122.392H151.561V126.59H162.87V122.392H157.227Z" fill="white"/>
<path d="M145.896 118.194V122.392H151.561V118.194H145.896Z" fill="white"/>
<path d="M145.895 63.6567H157.227V59.4589H145.895V55.261H140.229V118.194H145.895V63.6567Z" fill="white"/>
<path d="M162.87 63.6567H157.227V67.8545H168.536V63.6567H162.87Z" fill="white"/>
<path d="M174.202 67.8545H168.536V72.0524H179.867V67.8545H174.202Z" fill="white"/>
<path d="M185.534 72.0524H179.868V76.2502H191.199V72.0524H185.534Z" fill="white"/>
<path d="M196.866 76.2502H191.2V80.4309H202.531V76.2502H196.866Z" fill="white"/>
<path d="M213.84 139.184V84.6288H219.506V80.4309H202.531V84.6288H208.174V139.184H196.865V143.381H225.172V139.184H213.84Z" fill="white"/>
<path d="M225.171 134.986V139.184H236.503V134.986H225.171Z" fill="white"/>
<path d="M236.503 130.788V134.986H247.835V130.788H236.503Z" fill="white"/>
<path d="M247.835 126.59V130.788H259.144V126.59H247.835Z" fill="white"/>
<path d="M259.144 122.392V126.59H270.475V122.392H259.144Z" fill="white"/>
<path d="M270.476 122.392H276.141V118.194H270.476V122.392Z" fill="white"/>
<path d="M276.141 55.261V59.4589H264.81V63.6567H276.141V118.194H281.807V55.261H276.141Z" fill="white"/>
<path d="M253.501 63.6567V67.8545H264.81V63.6567H253.501Z" fill="white"/>
<path d="M242.169 67.8545V72.0524H253.501V67.8545H242.169Z" fill="white"/>
<path d="M230.837 72.0524V76.2502H242.169V72.0524H230.837Z" fill="white"/>
<path d="M219.506 76.2502V80.4309H230.838V76.2502H219.506Z" fill="white"/>
<g opacity="0.3">
<path d="M208.174 84.6288H202.531V80.4309H191.199V76.2502H179.868V72.0524H168.536V67.8545H157.227V63.6567H145.896V118.194H151.561V122.392H157.227H162.87V126.59H168.536H174.202V130.788H179.868H185.534V134.986H191.199H196.865V139.184H208.174V84.6288Z" fill="white"/>
<path d="M157.227 59.4589V63.6567H162.87H168.536V67.8545H174.202H179.868V72.0524H185.534H191.2V76.2502H196.865H202.531V80.4309H219.506V76.2502H230.838V72.0524H242.169V67.8545H253.501V63.6567H264.81V59.4589H276.142V55.261H270.476H264.81V51.0632H259.144H253.501V46.8825H247.835H242.169V42.6846H236.503H230.838V38.4868H225.172H219.506V34.289H213.84H202.531V38.4868H191.2V42.6846H179.868V46.8825H168.536V51.0632H157.227V55.261H145.896V59.4589H157.227Z" fill="white"/>
</g>
</g>
<defs>
<clipPath id="clip0_301_1187">
<rect width="329" height="174" fill="white" transform="translate(0 0.0911255)"/>
</clipPath>
</defs>
</svg>
