<svg width="243" height="220" viewBox="0 0 243 220" fill="none" xmlns="http://www.w3.org/2000/svg">
<g clip-path="url(#clip0_33_302)">
<path d="M165.24 0.0910645H155.52V8.85106H165.24V0.0910645Z" fill="white"/>
<path d="M97.2 17.6111V8.85106H87.48V0.0910645H77.76V8.85106V17.6111H87.48H97.2Z" fill="white"/>
<path d="M106.92 17.6111H97.2V26.3711H106.92V17.6111Z" fill="white"/>
<path d="M87.48 26.3711H77.76V35.1311H87.48V26.3711Z" fill="white"/>
<path d="M116.64 26.3711H106.92V35.1311H116.64V26.3711Z" fill="white"/>
<path d="M126.36 43.8911H136.08V35.1311H145.8V26.3711V17.6111V8.85106V0.0910645H136.08H126.36H116.64V8.85106V17.6111H126.36V8.85106H136.08V17.6111H126.36V26.3711V35.1311H116.64V43.8911H126.36Z" fill="white"/>
<path d="M155.52 43.8911V52.6511V61.4111H145.8V52.6511H136.08V61.4111V70.1711H145.8V78.9311H155.52H165.24V70.1711V61.4111V52.6511V43.8911V35.1311V26.3711V17.6111H155.52V26.3711V35.1311H145.8V43.8911H155.52Z" fill="white"/>
<path d="M106.92 43.8911V35.1311H97.2V43.8911V52.6511V61.4111H106.92V52.6511H116.64V43.8911H106.92Z" fill="white"/>
<path d="M87.48 61.4111V52.6511H77.76V61.4111V70.1711H87.48V61.4111Z" fill="white"/>
<path d="M126.36 61.4111V52.6511H116.64V61.4111V70.1711V78.9311H126.36V87.6911V96.4511H136.08V87.6911V78.9311V70.1711H126.36V61.4111Z" fill="white"/>
<path d="M184.68 70.171H174.96V78.931H184.68V70.171Z" fill="white"/>
<path d="M213.84 70.171H204.12V78.931H213.84V70.171Z" fill="white"/>
<path d="M233.28 70.171H223.56V78.931V87.691H233.28V78.931H243V70.171H233.28Z" fill="white"/>
<path d="M19.44 87.691H29.16V96.451V105.211H38.88V96.451V87.691V78.931V70.171H29.16H19.44V78.931H9.72V70.171H0V78.931V87.691H9.72H19.44Z" fill="white"/>
<path d="M87.48 87.691H97.2V78.931H106.92V70.171H97.2H87.48V78.931V87.691Z" fill="white"/>
<path d="M194.4 78.931H184.68V87.691H194.4V78.931Z" fill="white"/>
<path d="M58.3201 87.691V78.931H68.0401V87.691H77.7601V78.931V70.171H68.0401H58.3201H48.6001V78.931V87.691V96.451H58.3201H68.0401V87.691H58.3201Z" fill="white"/>
<path d="M184.68 87.691H174.96V96.451H184.68V87.691Z" fill="white"/>
<path d="M204.12 87.691H194.4V96.451H204.12V87.691Z" fill="white"/>
<path d="M19.44 96.451H9.71997V105.211H19.44V96.451Z" fill="white"/>
<path d="M77.76 96.451H68.04V105.211H77.76V96.451Z" fill="white"/>
<path d="M87.48 96.451V105.211V113.971H97.2V105.211H106.92H116.64V96.451H106.92V87.691H97.2V96.451H87.48Z" fill="white"/>
<path d="M68.0401 105.211H58.3201V113.971H68.0401V105.211Z" fill="white"/>
<path d="M223.56 105.211V96.451H213.84H204.12V105.211H213.84V113.971H223.56H233.28V122.731H243V113.971V105.211H233.28H223.56Z" fill="white"/>
<path d="M106.92 113.971H97.2V122.731H106.92V131.491V140.251H116.64V131.491V122.731H126.36V113.971V105.211H116.64V113.971H106.92Z" fill="white"/>
<path d="M97.2 131.491V122.731H87.48H77.76V113.971H68.04V122.731H58.32V113.971H48.6V122.731V131.491H38.88V122.731V113.971H29.16V122.731H19.44H9.71997V131.491H19.44V140.251V149.011H29.16V140.251H38.88H48.6V149.011H58.32H68.04V140.251H58.32V131.491H68.04H77.76V140.251H87.48V131.491H97.2Z" fill="white"/>
<path d="M136.08 122.731H126.36V131.491H136.08V122.731Z" fill="white"/>
<path d="M213.84 122.731V131.491H223.56H233.28V122.731H223.56H213.84Z" fill="white"/>
<path d="M9.72 131.491H0V140.251H9.72V131.491Z" fill="white"/>
<path d="M126.36 140.251H116.64V149.011H126.36V140.251Z" fill="white"/>
<path d="M223.56 140.251H213.84H204.12V131.491V122.731V113.971V105.211H194.4V96.451H184.68V105.211H174.96H165.24V113.971H155.52V105.211H165.24V96.451V87.691H155.52V96.451H145.8V105.211H136.08V113.971V122.731H145.8H155.52H165.24H174.96H184.68H194.4V131.491H184.68H174.96H165.24V140.251H155.52V131.491H145.8H136.08V140.251V149.011V157.771H126.36V166.531V175.291V184.051H136.08H145.8V175.291H155.52V184.051H165.24V192.811H174.96V201.571V210.331H165.24V219.091H174.96H184.68H194.4H204.12H213.84H223.56H233.28H243V210.331H233.28H223.56V201.571H233.28V192.811H243V184.051H233.28H223.56H213.84V175.291H204.12V166.531V157.771V149.011H213.84V157.771V166.531H223.56H233.28V175.291H243V166.531V157.771V149.011V140.251V131.491H233.28V140.251H223.56ZM145.8 166.531V157.771V149.011H155.52V157.771V166.531H145.8ZM184.68 210.331V201.571V192.811V184.051H194.4V192.811V201.571V210.331H184.68ZM213.84 201.571V210.331H204.12V201.571V192.811H213.84V201.571ZM194.4 157.771V166.531V175.291H184.68H174.96H165.24V166.531V157.771V149.011H174.96H184.68H194.4V157.771ZM233.28 157.771H223.56V149.011H233.28V157.771Z" fill="white"/>
<path d="M97.2 157.771H106.92V149.011V140.251H97.2H87.48V149.011H97.2V157.771Z" fill="white"/>
<path d="M97.2 166.531V157.771H87.48V149.011H77.76V157.771V166.531V175.291H87.48V166.531H97.2Z" fill="white"/>
<path d="M184.68 157.771H174.96V166.531H184.68V157.771Z" fill="white"/>
<path d="M106.92 175.291H116.64V166.531H106.92H97.2V175.291H106.92Z" fill="white"/>
<path d="M97.2 175.291H87.48V184.051H97.2V175.291Z" fill="white"/>
<path d="M87.48 184.051H77.76V192.811V201.571H87.48V192.811V184.051Z" fill="white"/>
<path d="M155.52 184.051H145.8V192.811H155.52V184.051Z" fill="white"/>
<path d="M97.2 201.571H106.92V192.811V184.051H97.2V192.811V201.571Z" fill="white"/>
<path d="M136.08 201.571H126.36H116.64H106.92V210.331H97.2V219.091H106.92H116.64V210.331H126.36H136.08H145.8H155.52V201.571H145.8V192.811H136.08V201.571Z" fill="white"/>
<path d="M97.2 201.571H87.48V210.331H97.2V201.571Z" fill="white"/>
<path d="M87.48 210.331H77.76V219.091H87.48V210.331Z" fill="white"/>
<path d="M57.8145 0.0734863H10.1865H-0.0195312V9.27149V52.1955V61.3935H10.1865H57.8145H68.0205V52.1955V9.27149V0.0734863H57.8145ZM57.8145 52.1955H10.1865V9.27149H57.8145V52.1955Z" fill="white"/>
<path d="M232.774 0.0734863H185.146H174.94V9.27149V52.1955V61.3935H185.146H232.774H242.98V52.1955V9.27149V0.0734863H232.774ZM232.774 52.1955H185.146V9.27149H232.774V52.1955Z" fill="white"/>
<path d="M57.8145 157.753H10.1865H-0.0195312V166.951V209.875V219.073H10.1865H57.8145H68.0205V209.875V166.951V157.753H57.8145ZM57.8145 209.875H10.1865V166.951H57.8145V209.875Z" fill="white"/>
<path d="M48.5902 17.6023H19.4302V43.8823H48.5902V17.6023Z" fill="white"/>
<path d="M223.55 17.6023H194.39V43.8823H223.55V17.6023Z" fill="white"/>
<path d="M48.5902 175.282H19.4302V201.562H48.5902V175.282Z" fill="white"/>
</g>
<defs>
<clipPath id="clip0_33_302">
<rect width="243" height="219" fill="white" transform="translate(0 0.0910645)"/>
</clipPath>
</defs>
</svg>
