<svg width="95" height="16" viewBox="0 0 95 16" fill="none" xmlns="http://www.w3.org/2000/svg">
<path d="M0 13.924V1.98481H10.8079V3.96962H12.6061V9.93418H10.8079V11.919H3.60568V13.9038H0V13.924ZM3.60568 9.9443H9.00961V3.97975H3.60568V9.9443ZM54.8192 15.9089V3.97975H65.627V5.96456H67.4253V11.9291H65.627V13.9139H58.4157V15.8987H54.8192V15.9089ZM58.4249 11.9291H63.8288V5.96456H58.4249V11.9291ZM15.8448 13.924V1.98481H14.0374V0H19.4413V11.9291H23.047V13.9139H15.8448V13.924ZM26.7536 13.924V11.9392H24.9553V9.9443H26.7536V7.95949H33.965V5.96456H26.7536V3.97975H35.7632V5.96456H37.5615V13.924H26.7536ZM28.5518 11.9291H33.9558V9.9443H28.5518V11.9291ZM41.635 15.9089V13.924H48.8464V11.9392H41.635V9.9443H39.8368V3.97975H43.4425V9.9443H48.8464V3.97975H52.4521V13.924H50.6447V15.9089H41.635ZM69.0859 13.924V11.9392H72.6916V5.96456H70.8934V3.97975H76.2973V11.9392H79.903V13.924H69.0859ZM72.6824 1.98481V0H76.2881V1.98481H72.6824ZM83.683 13.924V11.9392H81.8847V5.96456H83.683V3.97975H94.5V5.96456H85.4904V11.9291H94.5V13.9139H83.683V13.924Z" fill="white"/>
</svg>
