<svg width="93" height="16" viewBox="0 0 93 16" fill="none" xmlns="http://www.w3.org/2000/svg">
<path d="M0.5 13.924V1.98481H11.0791V3.96962H12.8393V9.93418H11.0791V11.919H4.02937V13.9038H0.5V13.924ZM4.02937 9.9443H9.31893V3.97975H4.02937V9.9443ZM54.159 15.9089V3.97975H64.7381V5.96456H66.4983V11.9291H64.7381V13.9139H57.6794V15.8987H54.159V15.9089ZM57.6883 11.9291H62.9779V5.96456H57.6883V11.9291ZM16.0095 13.924V1.98481H14.2403V0H19.5299V11.9291H23.0592V13.9139H16.0095V13.924ZM26.6874 13.924V11.9392H24.9272V9.9443H26.6874V7.95949H33.7461V5.96456H26.6874V3.97975H35.5063V5.96456H37.2665V13.924H26.6874ZM28.4476 11.9291H33.7371V9.9443H28.4476V11.9291ZM41.2539 15.9089V13.924H48.3126V11.9392H41.2539V9.9443H39.4937V3.97975H43.0231V9.9443H48.3126V3.97975H51.842V13.924H50.0728V15.9089H41.2539ZM68.1238 13.924V11.9392H71.6532V5.96456H69.893V3.97975H75.1825V11.9392H78.7119V13.924H68.1238ZM71.6442 1.98481V0H75.1735V1.98481H71.6442ZM82.4119 13.924V11.9392H80.6517V5.96456H82.4119V3.97975H93V5.96456H84.1811V11.9291H93V13.9139H82.4119V13.924Z" fill="white"/>
</svg>
