<svg width="93" height="17" viewBox="0 0 93 17" fill="none" xmlns="http://www.w3.org/2000/svg">
<path d="M0.5 14.9023V2.96302H11.0791V4.94783H12.8393V10.9124H11.0791V12.8972H4.02937V14.882H0.5V14.9023ZM4.02937 10.9225H9.31893V4.95796H4.02937V10.9225ZM54.159 16.8871V4.95796H64.7381V6.94277H66.4983V12.9073H64.7381V14.8921H57.6794V16.8769H54.159V16.8871ZM57.6883 12.9073H62.9779V6.94277H57.6883V12.9073ZM16.0095 14.9023V2.96302H14.2403V0.97821H19.5299V12.9073H23.0592V14.8921H16.0095V14.9023ZM26.6874 14.9023V12.9175H24.9272V10.9225H26.6874V8.9377H33.7461V6.94277H26.6874V4.95796H35.5063V6.94277H37.2665V14.9023H26.6874ZM28.4476 12.9073H33.7371V10.9225H28.4476V12.9073ZM41.2539 16.8871V14.9023H48.3126V12.9175H41.2539V10.9225H39.4937V4.95796H43.0231V10.9225H48.3126V4.95796H51.842V14.9023H50.0728V16.8871H41.2539ZM68.1238 14.9023V12.9175H71.6532V6.94277H69.893V4.95796H75.1825V12.9175H78.7119V14.9023H68.1238ZM71.6442 2.96302V0.97821H75.1735V2.96302H71.6442ZM82.4119 14.9023V12.9175H80.6517V6.94277H82.4119V4.95796H93V6.94277H84.1811V12.9073H93V14.8921H82.4119V14.9023Z" fill="black"/>
</svg>
