<svg width="231" height="136" viewBox="0 0 231 136" fill="none" xmlns="http://www.w3.org/2000/svg">
<path d="M9.93128 43.8259V40.5843H3.44141V43.8259H9.93128Z" fill="white"/>
<path d="M16.4078 40.5843V37.3558H9.93115V40.5843H16.4078Z" fill="white"/>
<path d="M22.8976 37.3558V34.1141H16.4077V37.3558H22.8976Z" fill="white"/>
<path d="M29.3873 34.1141V30.8724H22.8975V34.1141H29.3873Z" fill="white"/>
<path d="M35.8776 30.8724V27.6307H29.3877V30.8724H35.8776Z" fill="white"/>
<path d="M42.3541 27.6308H45.599V24.3891H35.8774V27.6308H42.3541Z" fill="white"/>
<path d="M48.8441 30.8724H52.089V27.6307H45.5991V30.8724H48.8441Z" fill="white"/>
<path d="M55.3338 34.1141H58.5787V30.8724H52.0889V34.1141H55.3338Z" fill="white"/>
<path d="M61.8236 37.3558H65.0685V34.1141H58.5786V37.3558H61.8236Z" fill="white"/>
<path d="M68.3001 40.5843H71.545V37.3558H65.0684V40.5843H68.3001Z" fill="white"/>
<path d="M74.7903 43.8259H78.0353V40.5843H71.5454V43.8259H74.7903Z" fill="white"/>
<path d="M29.3875 105.391H26.1426V108.633H32.6325V105.391H29.3875Z" fill="white"/>
<path d="M22.8978 102.15H19.6528V105.391H26.1427V102.15H22.8978Z" fill="white"/>
<path d="M16.4075 98.908H13.1626V102.15H19.6525V98.908H16.4075Z" fill="white"/>
<path d="M9.93097 95.6663H6.68604V98.908H13.1627V95.6663H9.93097Z" fill="white"/>
<path d="M3.44141 92.4246V95.6663H6.68634V92.4246H3.44141Z" fill="white"/>
<path d="M3.44123 50.3093H9.9311V47.0676H3.44123V43.8259H0.196289V92.4247H3.44123V50.3093Z" fill="white"/>
<path d="M13.1628 50.3093H9.93115V53.551H16.4078V50.3093H13.1628Z" fill="white"/>
<path d="M19.6527 53.5509H16.4077V56.7926H22.8976V53.5509H19.6527Z" fill="white"/>
<path d="M26.1424 56.7926H22.8975V60.0343H29.3873V56.7926H26.1424Z" fill="white"/>
<path d="M32.6326 60.0343H29.3877V63.2628H35.8776V60.0343H32.6326Z" fill="white"/>
<path d="M42.3539 108.633V66.5045H45.5988V63.2628H35.8773V66.5045H39.109V108.633H32.6323V111.875H48.8438V108.633H42.3539Z" fill="white"/>
<path d="M48.8438 105.391V108.633H55.3336V105.391H48.8438Z" fill="white"/>
<path d="M55.3335 102.15V105.391H61.8234V102.15H55.3335Z" fill="white"/>
<path d="M61.8237 98.908V102.15H68.3004V98.908H61.8237Z" fill="white"/>
<path d="M68.3003 95.6663V98.908H74.7902V95.6663H68.3003Z" fill="white"/>
<path d="M74.79 95.6663H78.035V92.4246H74.79V95.6663Z" fill="white"/>
<path d="M78.0353 43.8259V47.0676H71.5454V50.3093H78.0353V92.4247H81.2802V43.8259H78.0353Z" fill="white"/>
<path d="M65.0684 50.3093V53.551H71.545V50.3093H65.0684Z" fill="white"/>
<path d="M58.5786 53.5509V56.7926H65.0685V53.5509H58.5786Z" fill="white"/>
<path d="M52.0889 56.7926V60.0343H58.5787V56.7926H52.0889Z" fill="white"/>
<path d="M45.5991 60.0343V63.2628H52.089V60.0343H45.5991Z" fill="white"/>
<g opacity="0.3">
<path d="M39.1092 66.5044H35.8775V63.2627H29.3877V60.0343H22.8978V56.7926H16.4079V53.5509H9.93128V50.3092H3.44141V92.4246H6.68634V95.6663H9.93128H13.163V98.908H16.4079H19.6529V102.15H22.8978H26.1427V105.391H29.3877H32.6326V108.633H39.1092V66.5044Z" fill="white"/>
<path d="M9.93128 47.0676V50.3093H13.163H16.4079V53.551H19.6529H22.8978V56.7926H26.1427H29.3877V60.0343H32.6326H35.8775V63.2628H45.5991V60.0343H52.089V56.7926H58.5789V53.551H65.0688V50.3093H71.5454V47.0676H78.0353V43.8259H74.7903H71.5454V40.5842H68.3005H65.0688V37.3558H61.8238H58.5789V34.1141H55.3339H52.089V30.8724H48.8441H45.5991V27.6307H42.3542H35.8775V30.8724H29.3877V34.1141H22.8978V37.3558H16.4079V40.5842H9.93128V43.8259H3.44141V47.0676H9.93128Z" fill="white"/>
</g>
<path d="M159.56 59.7772V56.5487H156.315V59.7772H159.56Z" fill="white"/>
<path d="M149.839 56.5487H156.316V53.307H143.362V56.5487H149.839Z" fill="white"/>
<path d="M143.362 59.7772V56.5487H140.13V63.0188H143.362V59.7772Z" fill="white"/>
<path d="M156.316 63.0188H143.362V66.2473H162.792V59.7772H159.561V63.0188H156.316Z" fill="white"/>
<path d="M227.559 59.7772H198.42V56.5487H195.175V59.7772H185.467V56.5487H182.222V59.7772H169.269V69.489H136.886V72.7174H156.316V75.9591H159.561V72.7174H172.514V63.0188H227.559V66.2473H230.804V59.7772H227.559Z" fill="white"/>
<path d="M221.082 66.2473V69.489H227.559V66.2473H221.082Z" fill="white"/>
<path d="M214.605 69.489H182.222V72.7174H221.082V69.489H214.605Z" fill="white"/>
<path d="M211.374 43.6084H214.605V40.3668H211.374V43.6084Z" fill="white"/>
<path d="M214.605 37.1383V40.3668H217.85V33.8966H208.128V37.1383H214.605Z" fill="white"/>
<path d="M208.128 46.8369H211.373V43.6085H208.128V46.8369Z" fill="white"/>
<path d="M204.897 50.0786H208.129V46.8369H204.897V50.0786Z" fill="white"/>
<path d="M208.128 40.3668V37.1383H201.652V40.3668H208.128Z" fill="white"/>
<path d="M201.652 53.307H204.897V50.0786H201.652V53.307Z" fill="white"/>
<path d="M198.42 56.5487H201.652V53.307H198.42V56.5487Z" fill="white"/>
<path d="M201.652 40.3668H198.42V43.6084H201.652V40.3668Z" fill="white"/>
<path d="M198.42 43.6085H195.175V46.8369H198.42V43.6085Z" fill="white"/>
<path d="M195.175 46.8369H191.943V50.0786H195.175V46.8369Z" fill="white"/>
<path d="M191.944 50.0786H188.699V53.307H191.944V50.0786Z" fill="white"/>
<path d="M188.699 53.307H185.467V56.5487H188.699V53.307Z" fill="white"/>
<path d="M178.99 75.9591H182.222V72.7174H178.99V75.9591Z" fill="white"/>
<path d="M175.745 79.1875V88.8993H178.99V75.9591H175.745V79.1875Z" fill="white"/>
<path d="M175.745 69.489H178.99V66.2473H175.745V69.489Z" fill="white"/>
<path d="M172.514 92.1278H175.745V88.8994H172.514V92.1278Z" fill="white"/>
<path d="M175.745 75.9591V72.7174H172.514V75.9591H175.745Z" fill="white"/>
<path d="M169.269 95.3695H172.513V92.1278H169.269V95.3695Z" fill="white"/>
<path d="M169.269 82.4292V85.6577H172.513V79.1875H169.269V82.4292Z" fill="white"/>
<path d="M166.037 98.5979H169.269V95.3695H166.037V98.5979Z" fill="white"/>
<path d="M166.037 88.8993H169.269V85.6577H166.037V88.8993Z" fill="white"/>
<path d="M169.269 79.1875V75.9591H162.792V79.1875H169.269Z" fill="white"/>
<path d="M169.269 59.7772V56.5487H166.037V59.7772H169.269Z" fill="white"/>
<path d="M162.792 92.1278H166.037V88.8994H162.792V92.1278Z" fill="white"/>
<path d="M166.037 56.5487V53.307H162.792V56.5487H166.037Z" fill="white"/>
<path d="M159.56 98.5979H149.839V101.84H166.037V98.5979H159.56Z" fill="white"/>
<path d="M162.792 79.1875H159.561V82.4292H162.792V79.1875Z" fill="white"/>
<path d="M162.792 53.307V50.0786H159.561V53.307H162.792Z" fill="white"/>
<path d="M156.316 92.1278H153.084V95.3695H162.792V92.1278H156.316Z" fill="white"/>
<path d="M159.56 82.4292H156.315V85.6577H159.56V82.4292Z" fill="white"/>
<path d="M156.316 85.6577H153.084V88.8993H156.316V85.6577Z" fill="white"/>
<path d="M156.316 75.9591H153.084V79.1875H156.316V75.9591Z" fill="white"/>
<path d="M149.839 88.8994V92.1278H153.084V88.8994H149.839Z" fill="white"/>
<path d="M153.084 79.1875H149.839V82.4292H153.084V79.1875Z" fill="white"/>
<path d="M146.607 95.3695V98.5979H149.839V95.3695H146.607Z" fill="white"/>
<path d="M149.839 82.4292H146.607V85.6577H149.839V82.4292Z" fill="white"/>
<path d="M146.607 88.8993V85.6577H143.362V95.3695H146.607V88.8993Z" fill="white"/>
<path d="M146.607 50.0786H159.56V46.8369H140.13V50.0786H146.607Z" fill="white"/>
<path d="M140.131 50.0786H136.886V53.307H140.131V50.0786Z" fill="white"/>
<path d="M133.654 66.2473V69.489H136.885V66.2473H133.654Z" fill="white"/>
<path d="M136.885 53.307H133.654V56.5487H136.885V53.307Z" fill="white"/>
<path d="M133.654 59.7772V56.5487H130.409V66.2473H133.654V59.7772Z" fill="white"/>
<g opacity="0.3">
<path d="M195.176 59.7772V56.5487H198.421V53.307H201.652V50.0786H204.897V46.8369H208.129V43.6085H211.374V40.3668H214.606V37.1383H208.129V40.3668H201.652V43.6085H198.421V46.8369H195.176V50.0786H191.944V53.307H188.699V56.5487H185.467V59.7772H195.176Z" fill="white"/>
<path d="M172.514 63.0189V72.7174H175.745V75.9459H178.977V72.7174H182.209V69.489H214.592H221.069V66.2605H227.545V63.0321H172.514V63.0189ZM178.99 69.489H175.759V66.2605H178.99V69.489Z" fill="white"/>
</g>
<line x1="109.394" y1="136" x2="109.394" y2="8.74228e-08" stroke="white" stroke-width="4"/>
</svg>
