<svg width="243" height="165" viewBox="0 0 243 165" fill="none" xmlns="http://www.w3.org/2000/svg">
<path d="M70.5879 63.246V55.436H62.738V63.246H70.5879Z" fill="white"/>
<path d="M47.0704 55.436H62.7381V47.594H31.4026V55.436H47.0704Z" fill="white"/>
<path d="M31.4025 63.246V55.436H23.5847V71.088H31.4025V63.246Z" fill="white"/>
<path d="M62.7381 71.088H31.4026V78.898H78.4059V63.246H70.588V71.088H62.7381Z" fill="white"/>
<path d="M235.083 63.246H164.594V55.436H156.745V63.246H133.259V55.436H125.409V63.246H94.0735V86.74H15.7349V94.55H62.7381V102.392H70.5879V94.55H101.923V71.088H235.083V78.898H242.933V63.246H235.083Z" fill="white"/>
<path d="M219.416 78.898V86.74H235.083V78.898H219.416Z" fill="white"/>
<path d="M203.748 86.74H125.409V94.55H219.415V86.74H203.748Z" fill="white"/>
<path d="M195.93 24.132H203.748V16.29H195.93V24.132Z" fill="white"/>
<path d="M203.748 8.47998V16.29H211.598V0.63797H188.08V8.47998H203.748Z" fill="white"/>
<path d="M188.08 31.942H195.93V24.132H188.08V31.942Z" fill="white"/>
<path d="M180.262 39.784H188.08V31.942H180.262V39.784Z" fill="white"/>
<path d="M188.08 16.29V8.47997H172.412V16.29H188.08Z" fill="white"/>
<path d="M172.412 47.594H180.262V39.784H172.412V47.594Z" fill="white"/>
<path d="M164.594 55.436H172.412V47.594H164.594V55.436Z" fill="white"/>
<path d="M172.412 16.29H164.594V24.132H172.412V16.29Z" fill="white"/>
<path d="M164.595 24.132H156.745V31.942H164.595V24.132Z" fill="white"/>
<path d="M156.745 31.942H148.927V39.784H156.745V31.942Z" fill="white"/>
<path d="M148.927 39.784H141.077V47.594H148.927V39.784Z" fill="white"/>
<path d="M141.077 47.594H133.259V55.436H141.077V47.594Z" fill="white"/>
<path d="M117.591 102.392H125.409V94.55H117.591V102.392Z" fill="white"/>
<path d="M109.741 110.202V133.696H117.591V102.392H109.741V110.202Z" fill="white"/>
<path d="M109.741 86.74H117.591V78.898H109.741V86.74Z" fill="white"/>
<path d="M101.923 141.506H109.741V133.696H101.923V141.506Z" fill="white"/>
<path d="M109.741 102.392V94.55H101.923V102.392H109.741Z" fill="white"/>
<path d="M94.0735 149.348H101.923V141.506H94.0735V149.348Z" fill="white"/>
<path d="M94.0735 118.044V125.854H101.923V110.202H94.0735V118.044Z" fill="white"/>
<path d="M86.2556 157.158H94.0734V149.348H86.2556V157.158Z" fill="white"/>
<path d="M86.2556 133.696H94.0734V125.854H86.2556V133.696Z" fill="white"/>
<path d="M94.0735 110.202V102.392H78.4058V110.202H94.0735Z" fill="white"/>
<path d="M94.0734 63.246V55.436H86.2556V63.246H94.0734Z" fill="white"/>
<path d="M78.4058 141.506H86.2556V133.696H78.4058V141.506Z" fill="white"/>
<path d="M86.2556 55.436V47.594H78.4058V55.436H86.2556Z" fill="white"/>
<path d="M70.5879 157.158H47.0703V165H86.2557V157.158H70.5879Z" fill="white"/>
<path d="M78.4058 110.202H70.5879V118.044H78.4058V110.202Z" fill="white"/>
<path d="M78.4058 47.594V39.784H70.5879V47.594H78.4058Z" fill="white"/>
<path d="M62.738 141.506H54.9202V149.348H78.4058V141.506H62.738Z" fill="white"/>
<path d="M70.5879 118.044H62.738V125.854H70.5879V118.044Z" fill="white"/>
<path d="M62.738 125.854H54.9202V133.696H62.738V125.854Z" fill="white"/>
<path d="M62.738 102.392H54.9202V110.202H62.738V102.392Z" fill="white"/>
<path d="M47.0703 133.696V141.506H54.9202V133.696H47.0703Z" fill="white"/>
<path d="M54.9202 110.202H47.0703V118.044H54.9202V110.202Z" fill="white"/>
<path d="M39.2524 149.348V157.158H47.0703V149.348H39.2524Z" fill="white"/>
<path d="M47.0703 118.044H39.2524V125.854H47.0703V118.044Z" fill="white"/>
<path d="M39.2525 133.696V125.854H31.4026V149.348H39.2525V133.696Z" fill="white"/>
<path d="M39.2524 39.784H70.5879V31.942H23.5847V39.784H39.2524Z" fill="white"/>
<path d="M23.5848 39.784H15.7349V47.594H23.5848V39.784Z" fill="white"/>
<path d="M7.91699 78.898V86.74H15.7348V78.898H7.91699Z" fill="white"/>
<path d="M15.7348 47.594H7.91699V55.436H15.7348V47.594Z" fill="white"/>
<path d="M7.91703 63.246V55.436H0.0671387V78.898H7.91703V63.246Z" fill="white"/>
<g opacity="0.3">
<path d="M156.744 63.246V55.436H164.594V47.594H172.412V39.784H180.262V31.942H188.08V24.132H195.93V16.29H203.748V8.47997H188.08V16.29H172.412V24.132H164.594V31.942H156.744V39.784H148.926V47.594H141.077V55.436H133.259V63.246H156.744Z" fill="white"/>
<path d="M101.923 71.088V94.55H109.741V102.36H117.559V94.55H125.377V86.74H203.716H219.383V78.93H235.051V71.12H101.923V71.088ZM117.591 86.74H109.773V78.93H117.591V86.74Z" fill="white"/>
</g>
</svg>
