<svg width="149" height="68" viewBox="0 0 149 68" fill="none" xmlns="http://www.w3.org/2000/svg">
<path d="M28.381 16.644V0.0910645H42.5714V2.45577H44.9365V7.18518H42.5714V9.54989H44.9365V14.2793H42.5714V16.644H28.381ZM33.1111 7.18518H40.2063V2.45577H33.1111V7.18518ZM33.1111 14.2793H40.2063V9.54989H33.1111V14.2793Z" fill="white"/>
<path d="M49.6667 16.644V0.0910645H54.3968V14.2793H63.8571V16.644H49.6667Z" fill="white"/>
<path d="M68.5873 16.644V14.2793H66.2222V2.45577H68.5873V0.0910645H80.4127V2.45577H82.7778V14.2793H80.4127V16.644H68.5873ZM70.9524 14.2793H78.0476V2.45577H70.9524V14.2793Z" fill="white"/>
<path d="M89.873 16.644V14.2793H87.5079V11.9146H85.1429V4.82048H87.5079V2.45577H89.873V0.0910645H99.3333V2.45577H101.698V4.82048H96.9683V2.45577H92.2381V4.82048H89.873V11.9146H92.2381V14.2793H96.9683V11.9146H101.698V14.2793H99.3333V16.644H89.873Z" fill="white"/>
<path d="M104.063 16.644V0.0910645H108.794V7.18518H111.159V4.82048H113.524V2.45577H115.889V0.0910645H120.619V2.45577H118.254V4.82048H115.889V7.18518H113.524V9.54989H115.889V11.9146H118.254V14.2793H120.619V16.644H113.524V14.2793H111.159V11.9146H108.794V16.644H104.063Z" fill="white"/>
<path d="M28.381 41.8675V25.3146H42.5714V27.6793H44.9365V34.7734H42.5714V37.1381H33.1111V41.8675H28.381ZM33.1111 34.7734H40.2063V27.6793H33.1111V34.7734Z" fill="white"/>
<path d="M47.3016 41.8675V30.044H49.6667V27.6793H52.0317V25.3146H59.127V27.6793H61.4921V30.044H63.8571V41.8675H59.127V37.1381H52.0317V41.8675H47.3016ZM52.0317 34.7734H59.127V30.044H56.7619V27.6793H54.3968V30.044H52.0317V34.7734Z" fill="white"/>
<path d="M66.2222 41.8675V25.3146H80.4127V27.6793H82.7778V34.7734H80.4127V37.1381H70.9524V41.8675H66.2222ZM70.9524 34.7734H78.0476V27.6793H70.9524V34.7734Z" fill="white"/>
<path d="M85.1429 41.8675V25.3146H101.698V27.6793H89.873V32.4087H99.3333V34.7734H89.873V39.5028H101.698V41.8675H85.1429Z" fill="white"/>
<path d="M104.063 41.8675V25.3146H118.254V27.6793H120.619V34.7734H115.889V37.1381H118.254V39.5028H120.619V41.8675H113.524V39.5028H111.159V37.1381H108.794V41.8675H104.063ZM108.794 34.7734H113.524V32.4087H115.889V27.6793H108.794V34.7734Z" fill="white"/>
<path d="M2.36508 67.0911V64.7264H0V62.3617H4.73016V64.7264H11.8254V59.9969H2.36508V57.6322H0V52.9028H2.36508V50.5381H14.1905V52.9028H16.5556V55.2675H11.8254V52.9028H4.73016V57.6322H14.1905V59.9969H16.5556V64.7264H14.1905V67.0911H2.36508Z" fill="white"/>
<path d="M23.6508 67.0911V64.7264H21.2857V62.3617H18.9206V55.2675H21.2857V52.9028H23.6508V50.5381H33.1111V52.9028H35.4762V55.2675H30.746V52.9028H26.0159V55.2675H23.6508V62.3617H26.0159V64.7264H30.746V62.3617H35.4762V64.7264H33.1111V67.0911H23.6508Z" fill="white"/>
<path d="M40.2063 67.0911V64.7264H44.9365V52.9028H40.2063V50.5381H54.3968V52.9028H49.6667V64.7264H54.3968V67.0911H40.2063Z" fill="white"/>
<path d="M59.127 67.0911V64.7264H56.7619V62.3617H61.4921V64.7264H68.5873V59.9969H59.127V57.6322H56.7619V52.9028H59.127V50.5381H70.9524V52.9028H73.3175V55.2675H68.5873V52.9028H61.4921V57.6322H70.9524V59.9969H73.3175V64.7264H70.9524V67.0911H59.127Z" fill="white"/>
<path d="M78.0476 67.0911V64.7264H75.6825V62.3617H80.4127V64.7264H87.5079V59.9969H78.0476V57.6322H75.6825V52.9028H78.0476V50.5381H89.873V52.9028H92.2381V55.2675H87.5079V52.9028H80.4127V57.6322H89.873V59.9969H92.2381V64.7264H89.873V67.0911H78.0476Z" fill="white"/>
<path d="M96.9683 67.0911V64.7264H94.6032V52.9028H96.9683V50.5381H108.794V52.9028H111.159V64.7264H108.794V67.0911H96.9683ZM99.3333 64.7264H106.429V52.9028H99.3333V64.7264Z" fill="white"/>
<path d="M113.524 67.0911V50.5381H127.714V52.9028H130.079V59.9969H125.349V62.3617H127.714V64.7264H130.079V67.0911H122.984V64.7264H120.619V62.3617H118.254V67.0911H113.524ZM118.254 59.9969H122.984V57.6322H125.349V52.9028H118.254V59.9969Z" fill="white"/>
<path d="M134.81 67.0911V64.7264H132.444V62.3617H137.175V64.7264H144.27V59.9969H134.81V57.6322H132.444V52.9028H134.81V50.5381H146.635V52.9028H149V55.2675H144.27V52.9028H137.175V57.6322H146.635V59.9969H149V64.7264H146.635V67.0911H134.81Z" fill="white"/>
</svg>
